<svg width="20" height="21" viewBox="0 0 20 21" fill="none" xmlns="http://www.w3.org/2000/svg">
<path d="M0 2.16667C0 1.24619 0.746192 0.5 1.66667 0.5H18.3333C19.2538 0.5 20 1.24619 20 2.16667V18.8333C20 19.7538 19.2538 20.5 18.3333 20.5H1.66667C0.746192 20.5 0 19.7538 0 18.8333V2.16667Z" fill="#2F3136"/>
<path fill-rule="evenodd" clip-rule="evenodd" d="M3 15C3 14.7239 3.24108 14.5 3.53846 14.5H16.4615C16.7589 14.5 17 14.7239 17 15C17 15.2761 16.7589 15.5 16.4615 15.5H3.53846C3.24108 15.5 3 15.2761 3 15Z" fill="#9DA2B2"/>
</svg>
